<?xml version="1.0" standalone="no"?>
<!DOCTYPE svg PUBLIC "-//W3C//DTD SVG 20010904//EN"
 "http://www.w3.org/TR/2001/REC-SVG-20010904/DTD/svg10.dtd">
<svg version="1.0" xmlns="http://www.w3.org/2000/svg"
 width="260.000000pt" height="260.000000pt" viewBox="0 0 260.000000 260.000000"
 preserveAspectRatio="xMidYMid meet">
<metadata>
Created by potrace 1.11, written by Peter Selinger 2001-2013
</metadata>
<g transform="translate(0.000000,260.000000) scale(0.100000,-0.100000)"
fill="#000000" stroke="none">
<path d="M1150 2593 c-319 -49 -579 -178 -781 -389 -253 -266 -372 -572 -364
-934 2 -80 6 -156 9 -170 4 -14 9 -38 12 -55 67 -380 347 -742 709 -915 84
-40 203 -84 257 -94 7 -1 40 -9 73 -16 77 -18 388 -19 465 -2 30 7 66 14 79
17 49 9 158 49 239 86 299 138 541 395 663 701 12 29 22 58 23 63 1 6 10 35
19 65 46 154 59 382 32 550 -68 414 -328 772 -698 958 -132 66 -246 104 -392
129 -38 6 -311 11 -345 6z m350 -188 c431 -75 795 -420 894 -848 152 -653
-300 -1296 -964 -1373 -53 -7 -218 -6 -270 0 -299 38 -577 202 -766 451 -96
128 -189 361 -209 524 -17 143 0 329 43 471 128 429 529 753 972 786 47 4 86
7 87 8 4 3 177 -12 213 -19z"/>
<path d="M819 1763 c0 -10 -1 -226 -2 -480 l-2 -463 485 0 485 0 0 477 0 478
-483 3 c-454 2 -482 1 -483 -15z m796 -142 c8 -1 11 -105 11 -321 0 -282 -2
-320 -16 -321 -20 -1 -578 -1 -610 0 l-25 1 0 318 0 317 40 5 c30 4 537 4 600
1z"/>
</g>
</svg>
